<defs>
<font horiz-adv-x="945" ><font-face
    font-family="cantarell-regular"
    units-per-em="2048"
    panose-1="2 0 6 3 0 0 0 0 0 0"
    ascent="2137"
    descent="-555"
    alphabetic="0" />
<missing-glyph horiz-adv-x="748" d="M68 0V1365H612V0H68ZM136 68H544V1297H136V68Z" />
<glyph unicode=" " glyph-name="space" horiz-adv-x="560" />
<glyph unicode="!" glyph-name="exclam" horiz-adv-x="650" d="M225 200H425V0H225V200ZM240 1421H410V458H240V1421Z" />
<glyph unicode="&quot;" glyph-name="quotedbl" horiz-adv-x="795" d="M500 1511H685V1083H500V1511ZM110 1511H295V1083H110V1511Z" />
<glyph unicode="#" glyph-name="numbersign" horiz-adv-x="1402" d="M363 1421H523V1030H881V1421H1041V1030H1357V880H1041V528H1357V378H1041V-30H881V378H523V-30H363V378H47V528H363V880H45V1030H363V1421ZM523 880V528H881V880H523Z" />
<glyph unicode="$" glyph-name="dollar" horiz-adv-x="1200" d="M552 1511H673V1251Q760 1251 810 1243T938 1211L896 1086Q762 1123 660 1123Q601 1123 556 1112T486 1085T446 1047T426 1010T421 977Q421 936 463 904T569 852T707 805T844 747T950 661T993 534Q993
488 979 445T931 356T831 278T673 232V-65H552V225Q410 225 227 300L273 424Q368 384 428 369T552 354Q631 354 685 366T777 416T814 515Q814 549 790 575T726 617T636 651T533 684T430 723T339 777T275 854T251 960Q251 999 265 1039T312 1120T406 1193T552 1240V1511Z"
/>
<glyph unicode="%" glyph-name="percent" horiz-adv-x="1329" d="M326 1268Q272 1268 234 1229T196 1094Q196 1036 208 995T242 935T284 908T327 900Q380 900 418 942T457 1089Q457 1143 445 1180T411 1236T370 1261T326 1268ZM327 1363Q356 1363 383 1358T442
1335T498 1289T538 1210T554 1092Q554 959 490 883T326 806Q228 806 163 873T98 1093Q98 1223 166 1293T327 1363ZM984 527Q930 527 892 488T854 353Q854 295 866 254T900 194T942 167T985 159Q1038 159 1076 201T1115 348Q1115 402 1103 439T1069 495T1028 520T984
527ZM985 623Q1022 623 1057 613T1129 576T1190 492T1213 351Q1213 219 1148 143T984 66Q886 66 822 133T757 352Q757 482 824 552T985 623ZM1054 1421H1224L255 0H85L1054 1421Z" />
<glyph unicode="&amp;" glyph-name="ampersand" horiz-adv-x="1589" d="M707 1440Q858 1440 949 1365T1040 1175Q1040 1143 1031 1111T1011 1054T975 997T934 947T883 898T833 855T778 812T728 772L1076 401L1399 754L1492 660L1170 301L1453 0H1250L1056 201Q1016
161 988 136T906 72T803 10T682 -30T536 -47Q370 -47 275 45T180 282Q180 320 187 357T204 424T232 488T266 544T307 595T348 640T392 681T433 715T472 745T504 770Q411 866 380 908Q302 1014 302 1123Q302 1263 419 1351T707 1440ZM690 1297Q600 1297 535 1243T469
1114Q469 1087 476 1063T503 1014T538 971T585 922T635 871Q652 884 687 910T735 948T774 980T810 1012T836 1042T858 1074T869 1106T874 1143Q874 1205 823 1251T690 1297ZM601 671Q593 665 577 652Q521 608 492 583T423 513T365 424T347 327Q347 233 417 167T593
100Q640 100 687 115T770 148T846 198T908 249T960 299L601 671Z" />
<glyph unicode="&apos;" glyph-name="quotesingle" horiz-adv-x="405" d="M110 1511H295V1083H110V1511Z" />
<glyph unicode="(" glyph-name="parenleft" horiz-adv-x="742" d="M530 1548L662 1479Q547 1287 471 1055T395 574Q395 327 471 96T662 -324L533 -408Q477 -315 428 -215T328 14T249 289T220 576Q220 714 249 858T327 1130T425 1356T530 1548Z" />
<glyph unicode=")" glyph-name="parenright" horiz-adv-x="742" d="M212 1548Q268 1456 317 1357T415 1130T493 859T522 576Q522 437 493 291T414 15T315 -215T209 -408L80 -324Q195 -135 271 96T347 574Q347 822 271 1054T80 1479L212 1548Z" />
<glyph unicode="*" glyph-name="asterisk" horiz-adv-x="1196" d="M513 1421H683L665 1102L931 1277L1016 1129L732 988L1016 843L931 695L665 870L683 552H513L531 870L265 695L180 843L465 988L180 1129L265 1277L531 1102L513 1421Z" />
<glyph unicode="+" glyph-name="plus" horiz-adv-x="1400" d="M626 1233H774V727H1275V589H774V83H626V589H125V727H626V1233Z" />
<glyph unicode="," glyph-name="comma" horiz-adv-x="570" d="M200 170H380L222 -220H42L200 170Z" />
<glyph unicode="-" glyph-name="hyphen" horiz-adv-x="1210" d="M175 728H1035V589H175V728Z" />
<glyph unicode="." glyph-name="period" horiz-adv-x="570" d="M180 210H390V0H180V210Z" />
<glyph unicode="/" glyph-name="slash" horiz-adv-x="726" d="M536 1421H706L210 -90H40L536 1421Z" />
<glyph unicode="0" glyph-name="zero" horiz-adv-x="1300" d="M697 1287T649 1287T553 1271T455 1214T367 1112T304 952T279 730Q279 597 303 491T366 319T455 209T554 148T652 130Q691 130 731 142T813 181T892 254T958 364T1004 519T1021 722Q1021 847 997 947T934
1110T844 1213T745 1270ZM649 1440Q719 1440 788 1420T932 1349T1061 1219T1153 1014T1189 726Q1189 558 1154 425T1063 211T934 75T791 1T652 -20Q603 -20 554 -10T450 26T348 90T256 189T181 324T130 503T111 728Q111 843 129 942T180 1112T255 1241T347 1334T448
1395T551 1430T649 1440Z" />
<glyph unicode="1" glyph-name="one" horiz-adv-x="1300" d="M594 1421H790V149H1120V0H292V149H626V1257L314 1134L250 1281L594 1421Z" />
<glyph unicode="2" glyph-name="two" horiz-adv-x="1300" d="M188 1334Q417 1431 642 1431Q851 1431 978 1325T1106 1065Q1106 992 1078 928T1001 811T892 707T765 599T637 481T521 333T432 150H1132V0H225V93Q264 215 324 321T449 501T583 639T713 753T823 847T900
939T929 1035Q929 1137 835 1210T610 1284Q467 1284 237 1202L188 1334Z" />
<glyph unicode="3" glyph-name="three" horiz-adv-x="1300" d="M205 1336Q411 1438 607 1438Q793 1438 914 1342T1036 1101Q1036 990 977 903T818 778Q963 739 1030 650T1098 436Q1098 294 1027 184T830 15T547 -45Q361 -45 176 32L224 170Q432 113 549 113Q705
113 815 193T925 399Q925 434 916 467T878 542T802 613T669 663T472 684V830Q562 830 632 846T745 888T815 946T853 1011T864 1074Q864 1161 788 1222T586 1284Q440 1284 260 1201L205 1336Z" />
<glyph unicode="4" glyph-name="four" horiz-adv-x="1300" d="M694 1421H932V494H1180V344H932V0H768V344H120V456L694 1421ZM768 1259L316 494H768V1259Z" />
<glyph unicode="5" glyph-name="five" horiz-adv-x="1300" d="M235 1421H1091V1271H398V883Q502 896 601 896Q694 896 772 880T905 837T1001 773T1069 696T1110 612T1132 529T1138 454T1132 379T1109 293T1065 203T991 118T884 47T735 -1T539 -20Q354 -20 173
15L205 166Q355 134 526 134Q611 134 680 148T796 186T875 240T926 305T952 372T960 437Q960 476 949 515T908 596T833 671T714 723T545 744Q440 744 235 720V1421Z" />
<glyph unicode="6" glyph-name="six" horiz-adv-x="1300" d="M906 1432Q958 1432 1030 1425L1018 1277Q964 1283 911 1283Q815 1283 736 1265T602 1219T505 1149T437 1065T394 972T369 880T355 794Q411 857 496 894T683 932Q878 932 1002 806T1127 482Q1127 345
1067 230T893 45T635 -25Q594 -25 554 -19T467 4T378 48T298 122T231 230T186 380T169 577Q169 773 210 924T318 1169T483 1324T682 1408T906 1432ZM644 792Q515 792 426 703T336 476Q336 335 428 225T654 115Q781 115 872 218T963 464Q963 610 869 701T644 792Z"
/>
<glyph unicode="7" glyph-name="seven" horiz-adv-x="1300" d="M131 1421H1169V1314L506 0H308L960 1261H131V1421Z" />
<glyph unicode="8" glyph-name="eight" horiz-adv-x="1300" d="M643 1297Q540 1297 469 1237T397 1097Q397 1066 408 1038T435 989T479 948T530 916T588 890T644 869T698 852Q752 885 783 907T846 959T892 1020T906 1088Q906 1186 830 1241T643 1297ZM620 726Q482
685 403 595T324 405Q324 293 418 212T663 130Q803 130 889 207T975 397Q975 454 954 502T901 584T820 646T725 692T620 726ZM643 1440Q852 1440 961 1349T1070 1093Q1070 1006 1021 936T869 792Q1012 728 1081 629T1150 409Q1150 328 1117 252T1024 115T867 17T655
-20Q517 -20 402 32T218 178T150 390Q150 511 228 620T434 791Q373 822 330 863T267 949T239 1028T230 1098Q230 1242 342 1341T643 1440Z" />
<glyph unicode="9" glyph-name="nine" horiz-adv-x="1300" d="M666 1441Q709 1441 750 1435T838 1411T925 1365T1004 1289T1070 1181T1113 1031T1129 835Q1129 641 1088 491T980 247T815 93T615 9T392 -15Q330 -15 268 -9L280 139Q325 134 388 134Q466 134 532
145T647 174T737 221T806 279T856 349T891 423T914 502T928 579T938 655Q876 589 791 557T617 524Q427 524 299 647T171 959Q171 1157 313 1299T666 1441ZM644 1301Q523 1301 429 1201T335 975Q335 846 430 755T654 664Q781 664 871 752T962 963Q962 1044 920 1122T803
1250T644 1301Z" />
<glyph unicode=":" glyph-name="colon" horiz-adv-x="570" d="M180 210H390V0H180V210ZM180 993H390V783H180V993Z" />
<glyph unicode=";" glyph-name="semicolon" horiz-adv-x="570" d="M200 170H380L222 -220H42L200 170ZM180 993H390V783H180V993Z" />
<glyph unicode="&lt;" glyph-name="less" horiz-adv-x="1073" d="M973 1128V973L274 621L973 285V120L100 533V698L973 1128Z" />
<glyph unicode="=" glyph-name="equal" horiz-adv-x="1400" d="M220 501H1180V351H220V501ZM220 954H1180V804H220V954Z" />
<glyph unicode="&gt;" glyph-name="greater" horiz-adv-x="1073" d="M100 1128L973 698V533L100 120V285L799 621L100 973V1128Z" />
<glyph unicode="?" glyph-name="question" horiz-adv-x="1046" d="M311 200H511V0H311V200ZM423 1437Q637 1437 756 1352T876 1097Q876 1015 855 951T801 844T727 765T646 694T572 620T517 523T496 392H326Q326 478 347 548T402 664T477 748T559 820T635 886T690
966T711 1069Q711 1098 704 1125T676 1185T622 1240T530 1278T396 1294Q339 1294 269 1281T152 1247L100 1369Q239 1437 423 1437Z" />
<glyph unicode="@" glyph-name="at" horiz-adv-x="2100" d="M1054 962Q1180 962 1300 903L1323 968H1436V252Q1436 220 1437 202T1441 152T1452 101T1474 61T1511 30T1565 20Q1602 20 1640 46T1714 126T1772 280T1795 510Q1795 596 1786 671T1755 822T1697 958T1607
1072T1481 1161T1314 1217T1100 1238Q975 1238 870 1210T688 1135T552 1023T455 886T394 735T359 582T349 438Q349 299 386 181T486 -22T635 -167T817 -256T1017 -285Q1171 -285 1309 -218L1372 -337Q1197 -427 992 -427Q931 -427 866 -419T720 -387T565 -326T420
-223T297 -74T213 133T181 404Q181 506 193 602T237 799T317 986T441 1150T615 1281T847 1367T1142 1399Q1290 1399 1410 1371T1615 1297T1762 1181T1863 1039T1924 875T1955 704T1963 530Q1963 374 1932 254T1856 66T1751 -45T1642 -101T1545 -115Q1457 -115 1392
-68T1299 56Q1169 -20 1029 -20Q841 -20 721 108T601 452Q601 678 726 820T1054 962ZM1077 840Q934 840 844 744T753 475Q753 302 846 206T1082 109Q1185 109 1281 161V794Q1178 840 1077 840Z" />
<glyph unicode="A" glyph-name="A" horiz-adv-x="1383" d="M635 1421H828L1333 0H1161L1017 413H431L287 0H130L635 1421ZM724 1255L482 562H965L724 1255Z" />
<glyph unicode="B" glyph-name="B" horiz-adv-x="1424" d="M460 1291V814Q479 815 526 815T599 816T672 820T747 828T816 842T882 864T936 896T981 940T1007 997T1018 1071Q1018 1101 1012 1128T987 1186T938 1239T856 1276T734 1291H460ZM460 682V150H725Q761
150 785 150T856 156T934 171T1007 200T1071 247T1113 316T1130 413Q1130 546 1027 621T750 696Q731 696 460 682ZM290 1421H791Q864 1421 924 1406T1024 1366T1094 1309T1141 1245T1167 1179T1179 1122T1182 1079Q1182 992 1123 906T998 794Q1130 770 1214 667T1299
431Q1299 400 1294 366T1272 289T1231 207T1163 130T1065 63T929 18T752 0H290V1421Z" />
<glyph unicode="C" glyph-name="C" horiz-adv-x="1451" d="M986 1431Q1180 1431 1372 1355L1320 1214Q1126 1281 981 1281Q861 1281 759 1234T589 1107T483 925T445 710Q445 594 485 490T599 307T780 182T1018 136Q1172 136 1339 196L1391 70Q1182 -20 975 -20Q847
-20 735 17T540 120T396 278T306 478T275 709Q275 914 360 1077T609 1335T986 1431Z" />
<glyph unicode="D" glyph-name="D" horiz-adv-x="1606" d="M460 1271V150H667Q712 150 741 151T821 157T908 172T991 201T1074 247T1146 316T1209 411Q1275 538 1275 720Q1275 846 1239 947T1142 1112T1013 1213T869 1263Q825 1271 736 1271H460ZM730 1421Q868
1421 981 1394T1170 1316T1302 1203T1387 1063T1432 910T1446 754Q1446 661 1432 575T1384 400T1296 241T1157 114T964 30Q908 16 839 9T725 1T598 0H290V1421H730Z" />
<glyph unicode="E" glyph-name="E" horiz-adv-x="1283" d="M290 0V1421H1123V1271H460V807H1068V657H460V150H1123V0H290Z" />
<glyph unicode="F" glyph-name="F" horiz-adv-x="1248" d="M460 1271V807H1053V657H460V0H290V1421H1113V1271H460Z" />
<glyph unicode="G" glyph-name="G" horiz-adv-x="1591" d="M919 1432Q1159 1432 1376 1311L1309 1184Q1233 1224 1132 1253T928 1282Q823 1282 726 1243T552 1134T431 956T385 720Q385 551 460 416T667 206T962 131Q1155 131 1276 247V610H872V750H1441V192Q1414
161 1379 132T1280 65T1123 4T922 -20Q780 -20 661 22T460 136T323 301T241 499T215 709Q215 821 243 926T331 1124T472 1284T670 1392T919 1432Z" />
<glyph unicode="H" glyph-name="H" horiz-adv-x="1600" d="M1220 1421H1390V0H1220V658H460V0H290V1421H460V808H1220V1421Z" />
<glyph unicode="I" glyph-name="I" horiz-adv-x="730" d="M320 1421H490V0H320V1421Z" />
<glyph unicode="J" glyph-name="J" horiz-adv-x="953" d="M573 1421H743V426Q743 315 723 241T645 106Q528 -17 306 -17Q206 -17 110 7L137 149Q204 133 278 133Q339 133 387 145T465 175T518 221T550 272T566 327T572 376T573 417V1421Z" />
<glyph unicode="K" glyph-name="K" horiz-adv-x="1417" d="M290 1421H460V0H290V1421ZM1086 1421H1299L698 743L1337 0H1118L484 729L1086 1421Z" />
<glyph unicode="L" glyph-name="L" horiz-adv-x="1133" d="M290 1421H460V149H1098V0H290V1421Z" />
<glyph unicode="M" glyph-name="M" horiz-adv-x="1884" d="M290 1421H530L986 559L1449 1421H1674V0H1504V1177L1067 407H897L460 1177V0H290V1421Z" />
<glyph unicode="N" glyph-name="N" horiz-adv-x="1659" d="M290 1421H505L1279 232V1421H1449V0H1234L460 1191V0H290V1421Z" />
<glyph unicode="O" glyph-name="O" horiz-adv-x="1686" d="M884 1436Q1025 1436 1147 1387T1359 1247T1500 1023T1551 727Q1551 509 1465 340T1225 78T877 -15Q749 -15 632 30T421 163T271 390T215 707Q215 872 266 1009T406 1239T618 1384T884 1436ZM875 1287Q784
1287 700 1253T546 1154T433 978T390 728Q390 595 429 483T535 294T693 176T890 134Q961 134 1029 155T1161 221T1271 333T1347 496T1376 709Q1376 827 1346 925T1267 1089T1152 1200T1017 1266T875 1287Z" />
<glyph unicode="P" glyph-name="P" horiz-adv-x="1339" d="M290 1421H759Q792 1421 813 1421T876 1417T946 1407T1014 1387T1082 1355T1140 1308T1189 1242T1220 1155T1232 1043Q1232 955 1212 885T1161 768T1079 687T980 635T865 606T746 592T624 589Q556 589
460 596V0H290V1421ZM460 746Q556 738 642 738Q691 738 724 739T805 746T885 762T953 794T1010 843T1046 915T1060 1015Q1060 1073 1045 1117T1002 1189T942 1233T866 1258T788 1268T708 1271H460V746Z" />
<glyph unicode="Q" glyph-name="Q" horiz-adv-x="1706" d="M886 1436Q1185 1436 1368 1238T1551 711Q1551 412 1401 220L1582 41L1490 -56L1303 121Q1131 -15 888 -15Q747 -15 625 34T412 173T268 400T215 705Q215 871 266 1008T406 1239T618 1384T886 1436ZM872
1287Q784 1287 701 1254T547 1156T433 979T390 724Q390 584 432 470T546 284T711 173T908 134Q1071 134 1191 227L876 525L981 633L1287 332Q1376 469 1376 685Q1376 820 1343 927T1259 1101T1139 1210T1005 1270T872 1287Z" />
<glyph unicode="R" glyph-name="R" horiz-adv-x="1438" d="M1228 1031Q1228 960 1211 896T1158 774T1059 674T910 611L1311 0H1121L736 592H461V0H290V1421H812Q848 1421 877 1419T951 1409T1032 1386T1105 1342T1169 1272T1211 1170T1228 1031ZM461 742H706Q757
742 796 745T887 764T974 807T1033 887T1058 1012Q1058 1063 1045 1104T1012 1171T963 1217T907 1247T847 1263T793 1270T747 1272H461V742Z" />
<glyph unicode="S" glyph-name="S" horiz-adv-x="1361" d="M821 1434Q985 1434 1174 1377L1119 1222Q939 1274 807 1274Q659 1274 557 1212T454 1050Q454 995 487 952T574 882T697 829T837 780T978 724T1101 650T1188 544T1221 397Q1221 340 1203 284T1143 172T1039
74T883 6T672 -20T459 4T240 76L298 241Q548 148 693 148Q845 148 940 209T1036 372Q1036 440 994 489T884 569T734 626T571 683T422 754T312 862T269 1022Q269 1104 308 1179T418 1310T593 1400T821 1434Z" />
<glyph unicode="T" glyph-name="T" horiz-adv-x="1210" d="M85 1421H1205V1271H730V0H560V1271H85V1421Z" />
<glyph unicode="U" glyph-name="U" horiz-adv-x="1582" d="M290 1421H460V500Q460 415 474 354T536 240Q636 127 831 127Q972 127 1066 188T1189 362Q1202 415 1202 500V1421H1370Q1370 1100 1370 896T1371 635T1371 543T1372 485Q1372 439 1370 405T1357 314T1325
217T1265 128T1169 51T1027 0T831 -20Q714 -20 621 4T475 63T384 145T331 227T307 300Q290 366 290 487V1421Z" />
<glyph unicode="V" glyph-name="V" horiz-adv-x="1401" d="M140 1421H342L748 180L1154 1421H1341L846 0H635L140 1421Z" />
<glyph unicode="W" glyph-name="W" horiz-adv-x="2165" d="M140 1421H320L677 227L1037 1421H1208L1578 227L1925 1421H2105L1667 0H1486L1113 1187L764 0H583L140 1421Z" />
<glyph unicode="X" glyph-name="X" horiz-adv-x="1368" d="M1087 1421H1283L833 746L1338 0H1118L719 599L320 0H110L623 742L170 1421H376L738 886L1087 1421Z" />
<glyph unicode="Y" glyph-name="Y" horiz-adv-x="1263" d="M100 1421H301L663 834L1033 1421H1223L739 673V0H569V673L100 1421Z" />
<glyph unicode="Z" glyph-name="Z" horiz-adv-x="1358" d="M185 1421H1271V1312L381 150H1298V0H155V111L1028 1271H185V1421Z" />
<glyph unicode="[" glyph-name="bracketleft" horiz-adv-x="758" d="M250 1511H708V1362H414V-261H708V-410H250V1511Z" />
<glyph unicode="\" glyph-name="backslash" horiz-adv-x="726" d="M20 1421H190L686 -90H516L20 1421Z" />
<glyph unicode="]" glyph-name="bracketright" horiz-adv-x="758" d="M50 1511H508V-410H50V-261H344V1362H50V1511Z" />
<glyph unicode="^" glyph-name="asciicircum" horiz-adv-x="1479" d="M725 1541L981 1255L888 1167L712 1363L531 1167L443 1246L725 1541Z" />
<glyph unicode="_" glyph-name="underscore" horiz-adv-x="1160" d="M150 150H1010V0H150V150Z" />
<glyph unicode="`" glyph-name="grave" horiz-adv-x="1122" d="M345 1586L849 1276L786 1168L274 1463L345 1586Z" />
<glyph unicode="a" glyph-name="a" horiz-adv-x="1069" d="M507 1007Q617 1007 693 982T811 907T871 798T889 660V0H773L735 90Q614 -20 457 -20Q317 -20 220 64T123 262Q123 322 145 370T208 450T303 504T426 539T568 556T724 561V639Q724 673 722 698T705 758T667
815T595 854T481 871Q379 871 217 826L186 946Q350 1007 507 1007ZM724 437H663Q606 437 564 435T466 424T373 397T312 348T286 270Q286 207 349 158T501 109Q630 109 724 210V437Z" />
<glyph unicode="b" glyph-name="b" horiz-adv-x="1183" d="M190 1511H354V941Q483 1008 618 1008Q678 1008 736 994T852 943T955 851T1026 707T1054 506Q1054 262 925 121T589 -20Q454 -20 324 46L304 0H190V1511ZM562 872Q455 872 354 819V155Q461 109 565 109Q611
109 654 119T741 155T819 222T873 328T894 477Q894 571 872 643T816 758T736 827T648 863T562 872Z" />
<glyph unicode="c" glyph-name="c" horiz-adv-x="1001" d="M130 471Q130 588 158 681T232 834T342 933T471 989T609 1006Q751 1006 886 947L846 827Q735 865 629 865Q577 865 531 856T440 821T362 757T309 653T289 506Q289 415 310 346T365 233T446 163T542 126T647
115Q741 115 835 148L875 35Q733 -20 590 -20Q524 -20 464 -7T341 40T233 128T159 269T130 471Z" />
<glyph unicode="d" glyph-name="d" horiz-adv-x="1188" d="M130 477Q130 605 166 707T265 874T412 973T595 1008Q713 1008 834 955V1511H998V0H884L857 62Q718 -20 567 -20Q505 -20 446 -5T329 47T228 139T157 282T130 477ZM621 115Q730 115 834 171V831Q727 879
619 879Q573 879 530 869T442 833T365 766T311 658T290 503Q290 413 312 343T368 230T448 161T536 125T621 115Z" />
<glyph unicode="e" glyph-name="e" horiz-adv-x="1102" d="M605 1007Q677 1007 734 990T830 945T895 875T937 791T960 693T970 594T972 495V417H293Q293 363 317 310T386 212T503 139T664 111Q768 111 889 147L918 35Q757 -20 602 -20Q493 -20 409 9T273 84T188
196T143 325T130 462Q130 573 157 665T230 819T337 925T466 987T605 1007ZM570 865Q482 865 419 817T326 696T297 541H813Q813 865 570 865Z" />
<glyph unicode="f" glyph-name="f" horiz-adv-x="820" d="M662 1292Q603 1292 560 1276T496 1238T462 1186T447 1136T444 1095V988H775V859H444V0H278V859H135V988H278V1088Q278 1218 317 1286Q356 1355 432 1392T608 1429Q715 1429 845 1390L820 1268Q727 1292
662 1292Z" />
<glyph unicode="g" glyph-name="g" horiz-adv-x="1176" d="M587 1008Q705 1008 860 929L881 988H996V-62Q996 -92 994 -120T982 -199T954 -292T900 -382T814 -464T686 -519T510 -541Q357 -541 204 -477L250 -358Q373 -404 489 -404Q832 -404 832 -25V48Q703 -20
571 -20Q507 -20 446 -4T327 51T225 147T155 293T128 491Q128 606 160 698T241 847T353 941T475 993T587 1008ZM597 875Q458 875 373 775T288 510Q288 400 323 312T434 170T617 115Q726 115 832 172V819Q695 875 597 875Z" />
<glyph unicode="h" glyph-name="h" horiz-adv-x="1191" d="M618 860Q501 860 354 783V0H190V1511H354V913Q529 1006 682 1006Q748 1006 800 989T887 947T945 881T982 805T1001 720T1009 640T1011 567V0H843V597Q843 860 618 860Z" />
<glyph unicode="i" glyph-name="i" horiz-adv-x="524" d="M165 1421H359V1232H165V1421ZM180 988H344V0H180V988Z" />
<glyph unicode="j" glyph-name="j" horiz-adv-x="524" d="M165 1421H359V1232H165V1421ZM180 988H344V-137Q344 -169 343 -189T337 -246T323 -310T294 -372T247 -433T177 -487T80 -534L18 -410Q180 -333 180 -154V988Z" />
<glyph unicode="k" glyph-name="k" horiz-adv-x="1073" d="M180 1511H344V0H180V1511ZM796 1008H977L547 563L1003 0H806L360 546L796 1008Z" />
<glyph unicode="l" glyph-name="l" horiz-adv-x="564" d="M200 1511H364V0H200V1511Z" />
<glyph unicode="m" glyph-name="m" horiz-adv-x="1734" d="M575 856Q489 856 344 780V0H180V988H295L330 906Q509 1007 640 1007Q791 1007 877 897Q1073 1006 1228 1006Q1303 1006 1360 986T1452 930T1510 841T1541 728T1550 593V0H1386V604Q1386 622 1385 637T1380
680T1368 729T1345 776T1307 817T1251 845T1175 856Q1083 856 932 778Q946 719 946 586V0H782V608Q782 634 780 657T766 720T734 786T673 835T575 856Z" />
<glyph unicode="n" glyph-name="n" horiz-adv-x="1176" d="M180 988H295L331 904Q522 1008 679 1008Q760 1008 820 983T913 919T965 822T990 710T996 589V0H832V600Q832 860 608 860Q492 860 344 783V0H180V988Z" />
<glyph unicode="o" glyph-name="o" horiz-adv-x="1211" d="M611 1007Q816 1007 948 876T1081 514Q1081 269 946 125T595 -20Q390 -20 260 115T130 483Q130 722 262 864T611 1007ZM597 867Q474 867 382 772T290 511Q290 346 380 233T613 120Q745 120 833 220T921
481Q921 573 893 648T818 770T714 842T597 867Z" />
<glyph unicode="p" glyph-name="p" horiz-adv-x="1177" d="M612 1007Q673 1007 731 993T847 942T949 850T1020 705T1048 505Q1048 262 919 121T583 -20Q465 -20 344 33V-531H180V988H294L321 925Q461 1007 612 1007ZM556 871Q447 871 344 816V157Q451 109 559
109Q605 109 648 119T735 155T813 222T867 328T888 477Q888 571 866 643T810 757T730 826T642 862T556 871Z" />
<glyph unicode="q" glyph-name="q" horiz-adv-x="1176" d="M587 1008Q705 1008 860 929L881 988H996V-531H832V49Q701 -20 564 -20Q502 -20 444 -5T327 47T225 141T155 286T128 488Q128 616 168 718T274 881T421 975T587 1008ZM597 875Q457 875 373 775T288 504Q288
416 309 347T363 235T442 165T530 127T620 116Q729 116 832 171V819Q695 875 597 875Z" />
<glyph unicode="r" glyph-name="r" horiz-adv-x="801" d="M326 914Q451 1007 602 1007Q706 1007 791 968L741 837Q663 867 579 867Q454 867 344 798V0H180V988H295L326 914Z" />
<glyph unicode="s" glyph-name="s" horiz-adv-x="1016" d="M590 1007Q611 1007 629 1007T665 1004T695 1001T724 997T748 993T773 987T795 981T818 974T841 967L799 842Q665 879 563 879Q504 879 459 867T389 838T349 799T329 759T324 726Q324 685 366 653T472
601T610 554T747 496T853 410T896 283Q896 242 886 204T846 123T770 51T645 0T466 -20Q313 -20 130 55L176 179Q279 141 344 125T473 109Q717 109 717 264Q717 298 693 324T629 366T539 400T436 433T333 472T242 526T178 603T154 709Q154 745 165 782T208 861T287
934T412 986T590 1007Z" />
<glyph unicode="t" glyph-name="t" horiz-adv-x="775" d="M705 17Q560 -20 479 -20T342 6T257 80T216 183T203 311V859H70V988H203V1271H367V988H668V859H367V313Q367 108 529 108Q558 108 682 129L705 17Z" />
<glyph unicode="u" glyph-name="u" horiz-adv-x="1177" d="M833 988H997V0H882L847 83Q658 -20 498 -20Q417 -20 357 5T264 69T211 165T186 277T180 398V988H344V386Q344 127 569 127Q685 127 833 204V988Z" />
<glyph unicode="v" glyph-name="v" horiz-adv-x="993" d="M928 988L581 0H411L65 988H245L501 163L758 988H928Z" />
<glyph unicode="w" glyph-name="w" horiz-adv-x="1685" d="M60 988H235L503 159L757 988H918L1182 160L1450 988H1625L1264 0H1099L836 801L576 0H411L60 988Z" />
<glyph unicode="x" glyph-name="x" horiz-adv-x="1048" d="M65 988H255L534 596L803 988H978L614 484L959 0H769L504 371L252 0H77L423 485L65 988Z" />
<glyph unicode="y" glyph-name="y" horiz-adv-x="1060" d="M50 988H230L546 150L840 988H1010L440 -531H265L463 -49L50 988Z" />
<glyph unicode="z" glyph-name="z" horiz-adv-x="1078" d="M150 988H903V901L363 129H928V0H150V87L688 859H150V988Z" />
<glyph unicode="{" glyph-name="braceleft" horiz-adv-x="798" d="M90 618Q183 634 249 707T333 916Q337 948 341 1007T347 1080Q357 1185 390 1265T464 1389T555 1462T642 1499T712 1511L742 1382Q686 1375 637 1343T556 1262Q526 1217 511 1153T493 1028T482
897T459 767T406 649T302 549Q377 500 418 428T472 278T488 124T507 -32T556 -163Q588 -211 637 -243T742 -283L712 -412Q681 -410 647 -402T561 -366T468 -296T392 -175T347 6Q345 28 342 75T336 153T324 229T302 306T264 372T204 432Q153 469 90 480V618Z" />
<glyph unicode="|" glyph-name="bar" horiz-adv-x="884" d="M360 1601H524V-308H360V1601Z" />
<glyph unicode="}" glyph-name="braceright" horiz-adv-x="798" d="M86 1511Q120 1508 155 1500T242 1462T334 1390T407 1266T451 1080Q452 1067 456 1008T465 916Q483 780 549 707T708 618V480Q645 469 594 432Q559 407 534 373T496 306T474 229T463 154T457
76T451 6Q441 -96 406 -174T330 -295T237 -365T151 -401T86 -412L56 -283Q112 -276 161 -244T242 -163Q276 -111 290 -32T309 123T326 278T379 428T496 549Q432 590 393 648T339 767T317 897T306 1028T288 1153T242 1262Q210 1310 161 1342T56 1382L86 1511Z" />
<glyph unicode="~" glyph-name="asciitilde" horiz-adv-x="1400" d="M876 1361Q888 1361 898 1364T917 1375T931 1390T943 1411T952 1435T960 1462T966 1489T971 1518T976 1545L1084 1528Q1082 1519 1076 1487T1067 1443T1057 1401T1043 1358T1025 1321T1001 1287T971
1262T931 1244T882 1239Q838 1239 797 1257T725 1303T667 1357T614 1402T564 1421Q552 1421 542 1418T523 1407T508 1392T496 1371T487 1348T480 1321T474 1295T469 1267T464 1241L356 1256Q358 1264 364 1296T373 1341T383 1383T397 1426T415 1462T439 1496T469
1520T509 1538T558 1543Q602 1543 643 1525T715 1479T773 1425T826 1380T876 1361Z" />
<glyph unicode="&#xa0;" glyph-name="uni00A0" horiz-adv-x="560" />
<glyph unicode="&#xa1;" glyph-name="exclamdown" horiz-adv-x="650" d="M240 863H410V-410H240V863ZM225 1321H425V1121H225V1321Z" />
<glyph unicode="&#xa2;" glyph-name="cent" horiz-adv-x="1021" d="M150 713Q150 930 252 1069T543 1236V1511H664V1241Q772 1241 906 1183L866 1063Q755 1101 649 1101Q484 1101 397 1010T309 747Q309 658 331 589T387 477T470 408T567 370T669 360Q761 360 855
393L895 280Q765 229 664 229V-65H543V229Q367 249 259 369T150 713Z" />
<glyph unicode="&#xa3;" glyph-name="sterling" horiz-adv-x="1300" d="M152 135H396V662H220V797H396V938Q396 1052 425 1140T502 1282T615 1370T745 1418T882 1431Q998 1431 1117 1393L1069 1271Q980 1295 904 1295Q838 1295 786 1282T698 1246T636 1192T596
1127T573 1054T563 981T560 911V797H1090V662H560V135H1148V0H152V135Z" />
<glyph unicode="&#xa4;" glyph-name="currency" horiz-adv-x="1300" d="M650 1087Q744 1087 823 1040L989 1205L1114 1080L948 915Q995 834 995 742Q995 648 948 569L1113 404L988 279L823 444Q742 396 649 396T477 443L311 277L186 402L352 568Q304 647 304 741Q304
834 352 915L185 1082L310 1207L477 1040Q558 1087 650 1087ZM732 946T650 946T509 887T450 741Q450 657 508 597T649 537Q731 537 790 597T849 741Q849 827 791 886Z" />
<glyph unicode="&#xa5;" glyph-name="yen" horiz-adv-x="1300" d="M143 1421H328L650 818L982 1421H1157L730 699H1012V574H723V374H1012V249H723V0H563V249H288V374H563V574H288V699H556L143 1421Z" />
<glyph unicode="&#xa6;" glyph-name="brokenbar" horiz-adv-x="884" d="M360 460H524V-308H360V460ZM360 1601H524V837H360V1601Z" />
<glyph unicode="&#xa7;" glyph-name="section" horiz-adv-x="1136" d="M651 1434Q679 1434 704 1433T752 1429T790 1424T827 1417T858 1409T891 1400T922 1391L877 1260Q752 1299 626 1299Q518 1299 446 1259T374 1148Q374 1106 407 1074T493 1020T610 976T738
930T856 874T942 794T975 682Q975 559 891 474Q974 406 974 306Q974 263 963 222T921 135T841 57T711 2T524 -20H511Q325 -20 160 45L206 169Q377 109 510 109Q786 109 786 286Q786 329 754 361T669 413T554 451T428 493T312 547T228 630T195 752Q195 860 283 944Q195
1015 195 1127Q195 1167 208 1206T254 1288T338 1361T469 1413T651 1434ZM424 870Q374 830 374 771Q374 736 394 709T457 661T538 625T641 589T743 554Q786 596 786 662Q786 692 770 717T730 758T667 791T593 817T508 842T424 870Z" />
<glyph unicode="&#xa8;" glyph-name="dieresis" horiz-adv-x="1200" d="M283 1421H468V1235H283V1421ZM732 1421H917V1235H732V1421Z" />
<glyph unicode="&#xa9;" glyph-name="copyright" horiz-adv-x="1760" d="M906 1055Q1010 1055 1107 1012L1077 925Q998 953 919 953Q871 953 831 941T754 902T696 822T675 694Q675 614 697 558T757 472T838 429T932 416Q999 416 1069 440L1099 358Q998 319 895
319Q848 319 804 328T715 362T636 425T581 528T560 673Q560 776 590 853T671 972T781 1035T906 1055ZM999 1248T880 1248T654 1203T470 1081T348 900T303 683T348 466T470 286T654 164T880 118T1106 163T1290 285T1412 466T1457 683T1412 900T1290 1080T1106 1202ZM880
1380Q1026 1380 1158 1324T1385 1173T1534 950T1590 683T1535 416T1385 194T1159 43T880 -14T602 42T375 193T226 416T170 683Q170 820 224 947T372 1170T598 1322T880 1380Z" />
<glyph unicode="&#xaa;" glyph-name="ordfeminine" horiz-adv-x="766" d="M523 1102V1125Q523 1259 381 1259Q300 1259 211 1232L193 1303Q292 1339 392 1339Q456 1339 502 1323T570 1285T605 1231T619 1179T621 1131V760H551L529 814Q462 742 379 742Q288 742
232 787T175 915Q175 1027 256 1064T523 1102ZM523 1019H495Q451 1019 420 1017T351 1005T293 974T272 917Q272 881 306 852T394 822Q470 822 523 902V1019Z" />
<glyph unicode="&#xab;" glyph-name="guillemotleft" horiz-adv-x="936" d="M701 988H886L612 623L886 258H701L446 623L701 988ZM330 988H515L241 623L515 258H330L75 623L330 988Z" />
<glyph unicode="&#xac;" glyph-name="logicalnot" horiz-adv-x="1400" d="M125 732H1275V282H1127V583H125V732Z" />
<glyph unicode="&#xad;" glyph-name="uni00AD" horiz-adv-x="1074" d="M220 728H854V589H220V728Z" />
<glyph unicode="&#xae;" glyph-name="registered" horiz-adv-x="1232" d="M649 1320Q672 1320 688 1318T729 1310T775 1285T810 1237Q826 1203 826 1158Q826 1033 721 998L833 776H733L632 984H520V776H427V1320H649ZM616 1561Q758 1561 879 1492T1071 1304T1142
1043Q1142 937 1100 841T987 676T819 566T616 525Q472 525 351 596T160 786T90 1043Q90 1149 132 1245T245 1410T413 1520T616 1561ZM789 1450T616 1450T322 1330T201 1043Q201 877 322 757T616 636T910 756T1031 1043T910 1329ZM616 1240H520V1061Q567 1061 583
1061T611 1060Q670 1060 704 1078T738 1147Q738 1172 730 1190T709 1218T679 1232T647 1239T616 1240Z" />
<glyph unicode="&#xaf;" glyph-name="overscore" horiz-adv-x="1400" d="M285 1640H1115V1491H285V1640Z" />
<glyph unicode="0;" glyph-name="degree" horiz-adv-x="589" d="M295 1368Q240 1368 203 1329T165 1235T201 1141T295 1101Q349 1101 385 1141T422 1235T386 1328T295 1368ZM204 1459T294 1459T449 1394T514 1235T450 1076T295 1010T140 1075T75 1235Q75 1328
139 1393Z" />
<glyph unicode="1;" glyph-name="plusminus" horiz-adv-x="1400" d="M220 287H1180V150H220V287ZM627 1421H773V1009H1180V872H773V461H627V872H220V1009H627V1421Z" />
<glyph unicode="2;" glyph-name="uni00B2" horiz-adv-x="800" d="M370 1524Q475 1524 545 1469T616 1325Q616 1282 598 1242T550 1173T484 1108T411 1040T341 961T286 863H629V758H147V823Q169 892 205 954T279 1058T357 1138T427 1204T478 1259T498 1311Q498
1354 456 1387T354 1421Q296 1421 167 1370L130 1461Q256 1524 370 1524Z" />
<glyph unicode="3;" glyph-name="uni00B3" horiz-adv-x="800" d="M139 1462Q262 1521 359 1521Q457 1521 522 1469T588 1338Q588 1288 565 1246T503 1179Q619 1132 619 1005Q619 891 536 821T327 750Q232 750 125 794L158 890Q270 859 330 859Q402 859 452
895T503 988Q503 1029 482 1056T423 1094T353 1110T277 1114V1217Q388 1217 430 1249T473 1324Q473 1361 440 1387T348 1414Q278 1414 178 1368L139 1462Z" />
<glyph unicode="4;" glyph-name="acute" horiz-adv-x="1122" d="M778 1585L848 1462L336 1167L274 1275L778 1585Z" />
<glyph unicode="5;" glyph-name="uni00B5" horiz-adv-x="1187" d="M190 988H354V430Q354 401 356 376T365 310T388 238T430 176T499 129T597 112Q686 112 843 189V988H1007V0H892L863 67Q716 -27 570 -27Q444 -27 354 53V-410H190V988Z" />
<glyph unicode="6;" glyph-name="paragraph" horiz-adv-x="1338" d="M601 1511H1148V0H978V1361H738V0H567V686Q534 686 500 690T421 706T338 739T260 794T193 874T148 986T130 1133Q130 1194 142 1244T172 1331T221 1397T279 1444T346 1476T415 1496T484
1506T547 1510T601 1511Z" />
<glyph unicode="7;" glyph-name="middot" horiz-adv-x="590" d="M190 838H400V628H190V838Z" />
<glyph unicode="8;" glyph-name="cedilla" horiz-adv-x="1101" d="M718 -325Q718 -310 714 -298T698 -275T675 -258T640 -242T599 -228T547 -213T489 -195L547 22H674L634 -135Q636 -136 650 -140T671 -146T694 -154T719 -165T743 -178T767 -196T786 -218T803
-244T814 -276T818 -314Q818 -385 763 -441T614 -497Q593 -497 569 -494T516 -483T470 -471T422 -457T386 -446L412 -355Q569 -402 618 -402Q664 -402 691 -380T718 -325Z" />
<glyph unicode="9;" glyph-name="uni00B9" horiz-adv-x="543" d="M251 1511H343V760H230V1403L85 1362L60 1459L251 1511Z" />
<glyph unicode="a;" glyph-name="ordmasculine" horiz-adv-x="762" d="M380 1416Q343 1416 310 1404T247 1363T199 1280T181 1149Q181 1077 194 1022T228 936T277 885T330 859T382 852Q418 852 449 864T512 906T562 996T581 1142Q581 1209 568 1259T535 1339T486
1386T433 1410T380 1416ZM382 1519Q422 1519 459 1512T541 1480T618 1416T673 1307T695 1145Q695 963 606 858T380 752Q317 752 264 771T165 834T93 957T67 1146Q67 1237 94 1310T166 1427T266 1495T382 1519Z" />
<glyph unicode="b;" glyph-name="guillemotright" horiz-adv-x="936" d="M236 988L490 623L235 258H50L324 623L50 988H236ZM607 988L861 623L606 258H421L695 623L421 988H607Z" />
<glyph unicode="c;" glyph-name="onequarter" horiz-adv-x="1800" d="M1180 1421H1355L535 0H359L1180 1421ZM341 1421H453V618H320V1291L180 1252L150 1369L341 1421ZM1391 836H1548V305H1655V195H1548V0H1415V195H1025V284L1391 836ZM1415 688L1174 305H1415V688Z" />
<glyph unicode="d;" glyph-name="onehalf" horiz-adv-x="1847" d="M1180 1421H1355L535 0H359L1180 1421ZM341 1421H453V608H320V1291L180 1252L150 1369L341 1421ZM1402 842Q1517 842 1595 782T1673 624Q1673 568 1645 518T1572 426T1480 342T1384 241T1309
116H1687V0H1156V72Q1184 162 1234 240T1336 369T1435 462T1513 540T1543 608Q1543 655 1497 691T1384 728Q1319 728 1180 673L1138 773Q1280 842 1402 842Z" />
<glyph unicode="e;" glyph-name="threequarters" horiz-adv-x="1950" d="M1340 1421H1515L695 0H519L1340 1421ZM1541 836H1698V305H1805V195H1698V0H1565V195H1175V284L1541 836ZM1565 688L1324 305H1565V688ZM209 1385Q341 1450 452 1450Q560 1450 631 1393T703
1248Q703 1193 678 1147T610 1073Q738 1020 738 882Q738 757 647 679T416 601Q316 601 194 650L231 756Q359 721 420 721Q498 721 554 760T610 862Q610 1002 361 1002V1115Q426 1115 471 1126T538 1157T568 1194T577 1233Q577 1273 540 1302T440 1332Q361 1332
253 1281L209 1385Z" />
<glyph unicode="f;" glyph-name="questiondown" horiz-adv-x="1047" d="M354 988H524Q524 887 545 810T599 686T673 600T754 529T828 460T883 369T904 241Q904 136 837 46T675 -93T491 -141Q387 -141 304 -119T128 -53L180 69Q349 0 465 0Q593 0 666 66T739
225Q739 268 726 303T691 363T639 413T578 463T515 518T454 591T403 687T367 817T354 988ZM339 1421H539V1220H339V1421Z" />
<glyph unicode="0;" glyph-name="Agrave" horiz-adv-x="1383" d="M635 1421H828L1333 0H1161L1017 413H431L287 0H130L635 1421ZM724 1255L482 562H965L724 1255ZM526 1929L1030 1619L968 1511L456 1806L526 1929Z" />
<glyph unicode="1;" glyph-name="Aacute" horiz-adv-x="1383" d="M635 1421H828L1333 0H1161L1017 413H431L287 0H130L635 1421ZM724 1255L482 562H965L724 1255ZM934 1929L1004 1806L492 1511L430 1619L934 1929Z" />
<glyph unicode="2;" glyph-name="Acircumflex" horiz-adv-x="1383" d="M635 1421H828L1333 0H1161L1017 413H431L287 0H130L635 1421ZM724 1255L482 562H965L724 1255ZM751 1924L1007 1638L914 1550L738 1746L557 1551L469 1629L751 1924Z" />
<glyph unicode="3;" glyph-name="Atilde" horiz-adv-x="1383" d="M1008 1878L1116 1861Q1114 1850 1109 1824T1102 1785T1093 1747T1082 1708T1067 1673T1049 1640T1025 1614T996 1592T960 1579T915 1574Q871 1574 830 1592T758 1637T700 1690T647 1735T597
1754Q585 1754 575 1751T556 1741T542 1726T530 1706T521 1683T513 1657T507 1630T501 1602T496 1574L388 1589Q390 1597 396 1629T405 1674T415 1716T429 1759T447 1795T471 1829T501 1853T541 1871T590 1876Q634 1876 675 1858T747 1813T805 1760T858 1715T908
1696Q922 1696 933 1701T953 1712T968 1732T980 1756T989 1785T996 1814T1002 1847T1008 1878ZM724 1255L482 562H965L724 1255ZM635 1421H828L1333 0H1161L1017 413H431L287 0H130L635 1421Z" />
<glyph unicode="4;" glyph-name="Adieresis" horiz-adv-x="1383" d="M635 1421H828L1333 0H1161L1017 413H431L287 0H130L635 1421ZM724 1255L482 562H965L724 1255ZM416 1897H601V1712H416V1897ZM864 1897H1049V1712H864V1897Z" />
<glyph unicode="5;" glyph-name="Aring" horiz-adv-x="1383" d="M625 1873T733 1873T919 1799T998 1618Q998 1541 955 1478T841 1383L1333 0H1161L1017 413H431L287 0H130L622 1385Q554 1416 512 1479T470 1618Q470 1724 547 1798ZM735 1769Q668 1769 623
1725T578 1618Q578 1557 622 1511T735 1465Q800 1465 843 1511T887 1618T844 1724T735 1769ZM724 1255L482 562H965L724 1255Z" />
<glyph unicode="6;" glyph-name="AE" horiz-adv-x="1915" d="M510 562H967V1271H784L510 562ZM685 1421H1755V1271H1137V807H1700V657H1137V150H1755V0H967V414H452L292 0H130L685 1421Z" />
<glyph unicode="7;" glyph-name="Ccedilla" horiz-adv-x="1451" d="M1098 -316Q1098 -392 1039 -449T886 -506Q849 -506 811 -498T648 -453L678 -349Q842 -399 893 -399Q936 -399 960 -378T985 -328Q985 -287 949 -268T810 -218Q771 -207 750 -201L805 -2Q559
52 417 247T275 709Q275 914 360 1077T609 1335T986 1431Q1180 1431 1372 1355L1320 1214Q1126 1281 981 1281Q861 1281 759 1234T589 1107T483 925T445 710Q445 594 485 490T599 307T780 182T1018 136Q1172 136 1339 196L1391 70Q1182 -20 975 -20H947L918 -135L929
-138Q940 -141 949 -144T973 -152T1001 -165T1029 -183T1056 -206T1077 -235T1092 -272T1098 -316Z" />
<glyph unicode="8;" glyph-name="Egrave" horiz-adv-x="1283" d="M290 1421H1123V1271H460V807H1068V657H460V150H1123V0H290V1421ZM479 1929L983 1619L920 1511L408 1806L479 1929Z" />
<glyph unicode="9;" glyph-name="Eacute" horiz-adv-x="1283" d="M290 1421H1123V1271H460V807H1068V657H460V150H1123V0H290V1421ZM952 1929L1022 1806L510 1511L448 1619L952 1929Z" />
<glyph unicode="a;" glyph-name="Ecircumflex" horiz-adv-x="1283" d="M290 1421H1123V1271H460V807H1068V657H460V150H1123V0H290V1421ZM720 1932L976 1646L882 1558L707 1754L526 1559L438 1637L720 1932Z" />
<glyph unicode="b;" glyph-name="Edieresis" horiz-adv-x="1283" d="M290 1421H1123V1271H460V807H1068V657H460V150H1123V0H290V1421ZM390 1898H575V1713H390V1898ZM838 1898H1023V1713H838V1898Z" />
<glyph unicode="c;" glyph-name="Igrave" horiz-adv-x="730" d="M320 1421H490V0H320V1421ZM207 1927L711 1617L648 1511L136 1804L207 1927Z" />
<glyph unicode="d;" glyph-name="Iacute" horiz-adv-x="730" d="M320 1421H490V0H320V1421ZM555 1930L625 1807L113 1511L51 1620L555 1930Z" />
<glyph unicode="e;" glyph-name="Icircumflex" horiz-adv-x="730" d="M320 1421H490V0H320V1421ZM392 1924L648 1638L554 1550L379 1746L198 1551L110 1629L392 1924Z" />
<glyph unicode="f;" glyph-name="Idieresis" horiz-adv-x="670" d="M290 1421H460V0H290V1421ZM88 1824H273V1639H88V1824ZM477 1824H662V1639H477V1824Z" />
<glyph unicode="&#xd0;" glyph-name="Eth" horiz-adv-x="1605" d="M335 1421H770Q807 1421 841 1420T931 1411T1035 1391T1142 1354T1248 1296T1342 1212T1420 1097T1471 945T1491 754Q1491 637 1472 539T1420 368T1340 238T1243 143T1132 77T1017 35T902 13T797
2T706 0H335V658H117V808H335V1421ZM505 1271V808H761V658H505V150H712Q757 150 794 152T882 161T973 179T1060 212T1143 263T1213 335T1270 433T1306 560T1320 720Q1320 797 1306 868T1254 1015T1158 1145T1002 1236T781 1271H505Z" />
<glyph unicode="&#xd1;" glyph-name="Ntilde" horiz-adv-x="1659" d="M733 1876Q777 1876 818 1858T890 1813T948 1760T1001 1715T1051 1696Q1063 1696 1073 1699T1092 1709T1106 1724T1118 1745T1128 1768T1135 1794T1141 1821T1146 1850T1152 1878L1260 1861Q1258
1853 1252 1821T1243 1776T1233 1734T1219 1691T1201 1655T1177 1621T1147 1597T1107 1579T1058 1574Q1014 1574 973 1592T901 1637T843 1690T790 1735T740 1754Q726 1754 715 1749T695 1738T680 1718T668 1694T659 1665T652 1636T646 1603T640 1572L532 1589Q534
1600 539 1626T546 1665T555 1703T566 1742T581 1777T599 1810T623 1836T652 1858T688 1871T733 1876ZM290 1421H505L1279 232V1421H1449V0H1234L460 1191V0H290V1421Z" />
<glyph unicode="&#xd2;" glyph-name="Ograve" horiz-adv-x="1686" d="M884 1436Q1025 1436 1147 1387T1359 1247T1500 1023T1551 727Q1551 509 1465 340T1225 78T877 -15Q749 -15 632 30T421 163T271 390T215 707Q215 872 266 1009T406 1239T618 1384T884 1436ZM1376
709Q1376 827 1346 924T1267 1088T1152 1200T1016 1266T872 1287Q802 1287 735 1267T604 1202T494 1093T419 935T390 728Q390 595 429 483T535 294T693 176T890 134Q961 134 1029 155T1161 221T1271 333T1347 496T1376 709ZM737 1932L1241 1622L1178 1514L666 1809L737
1932Z" />
<glyph unicode="&#xd3;" glyph-name="Oacute" horiz-adv-x="1686" d="M884 1436Q1025 1436 1147 1387T1359 1247T1500 1023T1551 727Q1551 509 1465 340T1225 78T877 -15Q749 -15 632 30T421 163T271 390T215 707Q215 872 266 1009T406 1239T618 1384T884 1436ZM1376
709Q1376 827 1346 924T1267 1088T1152 1200T1016 1266T872 1287Q802 1287 735 1267T604 1202T494 1093T419 935T390 728Q390 595 429 483T535 294T693 176T890 134Q961 134 1029 155T1161 221T1271 333T1347 496T1376 709ZM1107 1930L1177 1807L665 1511L603 1620L1107
1930Z" />
<glyph unicode="&#xd4;" glyph-name="Ocircumflex" horiz-adv-x="1686" d="M884 1436Q1025 1436 1147 1387T1359 1247T1500 1023T1551 727Q1551 509 1465 340T1225 78T877 -15Q749 -15 632 30T421 163T271 390T215 707Q215 872 266 1009T406 1239T618 1384T884
1436ZM1376 709Q1376 827 1346 924T1267 1088T1152 1200T1016 1266T872 1287Q802 1287 735 1267T604 1202T494 1093T419 935T390 728Q390 595 429 483T535 294T693 176T890 134Q961 134 1029 155T1161 221T1271 333T1347 496T1376 709ZM912 1924L1168 1638L1075
1550L899 1746L718 1551L630 1629L912 1924Z" />
<glyph unicode="&#xd5;" glyph-name="Otilde" horiz-adv-x="1686" d="M1169 1878L1277 1861Q1275 1853 1269 1821T1260 1776T1250 1734T1236 1691T1218 1655T1194 1621T1164 1597T1124 1579T1075 1574Q1031 1574 990 1592T918 1637T860 1690T807 1735T757 1754Q743
1754 732 1749T712 1738T697 1718T685 1694T676 1665T669 1636T663 1603T657 1572L549 1589Q551 1597 557 1629T566 1674T576 1716T590 1759T608 1795T632 1829T662 1853T702 1871T751 1876Q795 1876 836 1858T908 1813T966 1760T1019 1715T1069 1696Q1083 1696
1094 1701T1114 1712T1129 1732T1141 1756T1150 1785T1157 1814T1163 1847T1169 1878ZM1376 709Q1376 826 1347 923T1268 1087T1153 1199T1017 1266T872 1287Q802 1287 735 1267T604 1202T494 1093T419 935T390 728Q390 595 429 483T535 294T693 176T890 134Q961
134 1029 155T1161 221T1271 333T1347 496T1376 709ZM884 1436Q1025 1436 1147 1387T1359 1247T1500 1023T1551 727Q1551 509 1465 340T1225 78T877 -15Q749 -15 632 30T421 163T271 390T215 707Q215 872 266 1009T406 1239T618 1384T884 1436Z" />
<glyph unicode="&#xd6;" glyph-name="Odieresis" horiz-adv-x="1686" d="M884 1436Q1025 1436 1147 1387T1359 1247T1500 1023T1551 727Q1551 509 1465 340T1225 78T877 -15Q749 -15 632 30T421 163T271 390T215 707Q215 872 266 1009T406 1239T618 1384T884 1436ZM1376
709Q1376 827 1346 924T1267 1088T1152 1200T1016 1266T872 1287Q802 1287 735 1267T604 1202T494 1093T419 935T390 728Q390 595 429 483T535 294T693 176T890 134Q961 134 1029 155T1161 221T1271 333T1347 496T1376 709ZM576 1898H761V1713H576V1898ZM1025 1898H1210V1713H1025V1898Z"
/>
<glyph unicode="&#xd7;" glyph-name="multiply" horiz-adv-x="1299" d="M288 194L182 299L537 654L190 1000L295 1105L656 744L1010 1099L1115 993L762 639L1108 292L1003 187L642 548L288 194Z" />
<glyph unicode="&#xd8;" glyph-name="Oslash" horiz-adv-x="1756" d="M884 1436Q1021 1436 1149 1386T1372 1233L1556 1409L1619 1344L1428 1162Q1551 980 1551 727Q1551 509 1465 340T1225 78T877 -15Q795 -15 717 4T591 45T495 103T433 151T402 182L215 5L154
70L345 252Q215 439 215 707Q215 872 266 1009T406 1239T618 1384T884 1436ZM1247 1114Q1177 1198 1080 1242T875 1287Q784 1287 700 1253T546 1154T433 978T390 728Q390 527 476 377L1247 1114ZM890 134Q961 134 1029 155T1161 221T1271 333T1347 496T1376 709Q1376
899 1299 1038L528 302Q597 220 691 177T890 134Z" />
<glyph unicode="&#xd9;" glyph-name="Ugrave" horiz-adv-x="1580" d="M290 1421H460V500Q460 468 461 442T471 375T494 303T536 237T602 180T698 142T830 127Q916 127 982 147T1088 200T1154 283T1190 384T1200 500V1421H1370V483Q1370 448 1369 424T1363 356T1349
282T1320 209T1273 137T1204 76T1110 25T984 -7T823 -20Q714 -20 628 1T486 52T392 131T333 220T304 318T292 406T290 483V1421ZM624 1927L1128 1617L1065 1511L553 1804L624 1927Z" />
<glyph unicode="&#xda;" glyph-name="Uacute" horiz-adv-x="1580" d="M290 1421H460V500Q460 468 461 442T471 375T494 303T536 237T602 180T698 142T830 127Q916 127 982 147T1088 200T1154 283T1190 384T1200 500V1421H1370V483Q1370 448 1369 424T1363 356T1349
282T1320 209T1273 137T1204 76T1110 25T984 -7T823 -20Q714 -20 628 1T486 52T392 131T333 220T304 318T292 406T290 483V1421ZM1064 1930L1134 1807L622 1511L560 1620L1064 1930Z" />
<glyph unicode="&#xdb;" glyph-name="Ucircumflex" horiz-adv-x="1580" d="M290 1421H460V500Q460 468 461 442T471 375T494 303T536 237T602 180T698 142T830 127Q916 127 982 147T1088 200T1154 283T1190 384T1200 500V1421H1370V483Q1370 448 1369 424T1363
356T1349 282T1320 209T1273 137T1204 76T1110 25T984 -7T823 -20Q714 -20 628 1T486 52T392 131T333 220T304 318T292 406T290 483V1421ZM844 1924L1100 1638L1006 1550L831 1746L650 1551L562 1629L844 1924Z" />
<glyph unicode="&#xdc;" glyph-name="Udieresis" horiz-adv-x="1580" d="M290 1421H460V500Q460 468 461 442T471 375T494 303T536 237T602 180T698 142T830 127Q916 127 982 147T1088 200T1154 283T1190 384T1200 500V1421H1370V483Q1370 448 1369 424T1363 356T1349
282T1320 209T1273 137T1204 76T1110 25T984 -7T823 -20Q714 -20 628 1T486 52T392 131T333 220T304 318T292 406T290 483V1421ZM513 1898H698V1713H513V1898ZM962 1898H1147V1713H962V1898Z" />
<glyph unicode="&#xdd;" glyph-name="Yacute" horiz-adv-x="1263" d="M100 1421H301L663 834L1033 1421H1223L739 673V0H569V673L100 1421ZM871 1930L941 1807L429 1511L367 1620L871 1930Z" />
<glyph unicode="&#xde;" glyph-name="Thorn" horiz-adv-x="1326" d="M682 1008Q566 1008 460 998V483Q570 474 655 474H683Q722 474 749 475T819 482T892 498T957 529T1013 578T1048 651T1063 752Q1063 801 1050 840T1017 906T964 951T901 981T828 998T755 1006T682
1008ZM290 1421H460V1147Q590 1160 729 1160Q818 1160 890 1150T1028 1115T1138 1049T1209 943T1236 791Q1236 742 1229 694T1201 593T1150 495T1068 414T952 358Q842 326 624 326Q542 326 460 332V0H290V1421Z" />
<glyph unicode="&#xdf;" glyph-name="germandbls" horiz-adv-x="1258" d="M594 1430Q661 1430 719 1410T816 1355T884 1278T926 1190T940 1101Q940 1036 913 984T848 899T772 838T707 779T680 712Q680 674 705 647T771 603T860 570T958 531T1047 477T1112 390T1138
261Q1138 227 1131 193T1100 118T1042 46T946 -5T807 -26Q661 -26 502 21L533 137Q690 106 773 106Q865 106 915 141T965 258Q965 302 946 334T895 386T824 422T741 453T659 487T587 534T537 604T517 705Q517 757 536 799T585 869T648 923T712 972T760 1025T780
1091Q780 1172 717 1227T576 1283Q557 1283 535 1279T481 1259T425 1216T382 1139T364 1022V0H200V1023Q200 1109 224 1179T286 1295T377 1372T483 1416T594 1430Z" />
<glyph unicode="&#xe0;" glyph-name="agrave" horiz-adv-x="1069" d="M507 1006Q618 1006 694 980T812 905T871 795T889 656V0H773L735 90Q614 -20 457 -20Q317 -20 220 64T123 262Q123 334 155 388T241 474T375 526T537 553T724 560V639Q724 673 722 698T705
758T667 815T595 854T481 871Q379 871 217 826L186 946Q347 1006 507 1006ZM724 437H663Q617 437 582 436T499 429T417 413T352 384T304 337T287 270Q287 207 350 158T501 109Q630 109 724 210V437ZM445 1539L809 1215L729 1115L353 1430L445 1539Z" />
<glyph unicode="&#xe1;" glyph-name="aacute" horiz-adv-x="1069" d="M676 1549L768 1440L392 1125L312 1225L676 1549ZM724 437H663Q617 437 582 436T499 429T417 413T352 384T304 337T287 270Q287 207 350 158T501 109Q630 109 724 210V437ZM507 1006Q618 1006
694 980T812 905T871 795T889 656V0H773L735 90Q614 -20 457 -20Q317 -20 220 64T123 262Q123 334 155 388T241 474T375 526T537 553T724 560V639Q724 673 722 698T705 758T667 815T595 854T481 871Q379 871 217 826L186 946Q347 1006 507 1006Z" />
<glyph unicode="&#xe2;" glyph-name="acircumflex" horiz-adv-x="1069" d="M544 1490L800 1204L707 1116L532 1312L350 1117L262 1195L544 1490ZM724 437H663Q617 437 582 436T499 429T417 413T352 384T304 337T287 270Q287 207 350 158T501 109Q630 109 724 210V437ZM507
1006Q618 1006 694 980T812 905T871 795T889 656V0H773L735 90Q614 -20 457 -20Q317 -20 220 64T123 262Q123 334 155 388T241 474T375 526T537 553T724 560V639Q724 673 722 698T705 758T667 815T595 854T481 871Q379 871 217 826L186 946Q347 1006 507 1006Z"
/>
<glyph unicode="&#xe3;" glyph-name="atilde" horiz-adv-x="1069" d="M802 1444L910 1427L893 1342Q873 1246 838 1201Q790 1140 708 1140Q664 1140 623 1158T551 1203T493 1256T440 1301T390 1320Q377 1320 366 1315T346 1304T331 1286T320 1265T311 1242T306
1222T302 1202L300 1190L290 1140L182 1155L199 1240Q203 1261 204 1266T213 1298T228 1339T250 1375T283 1410T326 1432T384 1442Q428 1442 469 1424T541 1379T599 1326T652 1281T702 1262Q715 1262 726 1267T746 1278T761 1296T772 1317T781 1340T786 1360T790
1380L792 1392L802 1444ZM724 437H663Q617 437 582 436T499 429T417 413T352 384T304 337T287 270Q287 207 350 158T501 109Q630 109 724 210V437ZM507 1006Q618 1006 694 980T812 905T871 795T889 656V0H773L735 90Q614 -20 457 -20Q317 -20 220 64T123 262Q123
334 155 388T241 474T375 526T537 553T724 560V639Q724 673 722 698T705 758T667 815T595 854T481 871Q379 871 217 826L186 946Q347 1006 507 1006Z" />
<glyph unicode="&#xe4;" glyph-name="adieresis" horiz-adv-x="1069" d="M708 1421H893V1235H708V1421ZM259 1421H444V1235H259V1421ZM724 437H663Q617 437 582 436T499 429T417 413T352 384T304 337T287 270Q287 207 350 158T501 109Q630 109 724 210V437ZM507
1006Q618 1006 694 980T812 905T871 795T889 656V0H773L735 90Q614 -20 457 -20Q317 -20 220 64T123 262Q123 334 155 388T241 474T375 526T537 553T724 560V639Q724 673 722 698T705 758T667 815T595 854T481 871Q379 871 217 826L186 946Q347 1006 507 1006Z"
/>
<glyph unicode="&#xe5;" glyph-name="aring" horiz-adv-x="1069" d="M551 1482Q496 1482 459 1443T421 1349T457 1255T551 1215Q605 1215 641 1255T678 1349T642 1442T551 1482ZM460 1573T550 1573T705 1508T770 1349T706 1190T551 1124T396 1189T331 1349Q331
1442 395 1507ZM724 437H663Q617 437 582 436T499 429T417 413T352 384T304 337T287 270Q287 207 350 158T501 109Q630 109 724 210V437ZM507 1006Q618 1006 694 980T812 905T871 795T889 656V0H773L735 90Q614 -20 457 -20Q317 -20 220 64T123 262Q123 334 155
388T241 474T375 526T537 553T724 560V639Q724 673 722 698T705 758T667 815T595 854T481 871Q379 871 217 826L186 946Q347 1006 507 1006Z" />
<glyph unicode="&#xe6;" glyph-name="ae" horiz-adv-x="1674" d="M286 274Q286 207 353 159T506 111Q633 111 724 207V436Q591 436 503 425T368 392T304 342T286 274ZM1163 864Q1042 864 970 775T897 560H1386Q1386 600 1381 637T1361 718T1323 792T1258 843T1163
864ZM186 944Q352 1006 521 1006Q639 1006 718 960T836 832Q901 911 994 958T1191 1006Q1279 1006 1344 972T1446 884T1506 752T1536 600T1543 436H889Q889 299 993 206T1253 112Q1337 112 1459 148L1486 36Q1334 -20 1190 -20Q1081 -20 983 17T821 131Q706 -20
473 -20Q333 -20 228 62T123 266Q123 378 215 456T483 553Q571 562 724 562V613Q724 661 713 703T676 784T600 847T479 870Q388 870 227 826L186 944Z" />
<glyph unicode="&#xe7;" glyph-name="ccedilla" horiz-adv-x="1001" d="M679 -326Q679 -311 675 -299T659 -276T636 -259T601 -243T560 -229T508 -214T450 -196L497 -20Q439 -11 389 8T290 66T207 156T151 288T130 464Q130 581 158 674T232 827T342 926T471 982T609
999Q751 999 886 940L846 820Q735 858 629 858Q577 858 531 849T440 814T362 750T309 646T289 499Q289 408 310 339T365 226T446 156T542 119T647 108Q741 108 835 141L875 28Q746 -21 623 -26L595 -136Q597 -137 611 -141T632 -147T655 -155T680 -166T704 -179T728
-197T747 -219T764 -245T775 -277T779 -315Q779 -386 724 -442T575 -498Q554 -498 530 -495T477 -484T431 -472T383 -458T347 -447L373 -356Q530 -403 579 -403Q625 -403 652 -381T679 -326Z" />
<glyph unicode="&#xe8;" glyph-name="egrave" horiz-adv-x="1102" d="M605 1007Q677 1007 734 990T830 945T895 875T937 791T960 693T970 594T972 495V417H293Q293 363 317 310T386 212T503 139T664 111Q768 111 889 147L918 35Q757 -20 602 -20Q493 -20 409 9T273
84T188 196T143 325T130 462Q130 573 157 665T230 819T337 925T466 987T605 1007ZM570 865Q482 865 419 817T326 696T297 541H813Q813 865 570 865ZM460 1549L824 1225L744 1125L368 1440L460 1549Z" />
<glyph unicode="&#xe9;" glyph-name="eacute" horiz-adv-x="1102" d="M605 1007Q677 1007 734 990T830 945T895 875T937 791T960 693T970 594T972 495V417H293Q293 363 317 310T386 212T503 139T664 111Q768 111 889 147L918 35Q757 -20 602 -20Q493 -20 409 9T273
84T188 196T143 325T130 462Q130 573 157 665T230 819T337 925T466 987T605 1007ZM570 865Q482 865 419 817T326 696T297 541H813Q813 865 570 865ZM776 1549L868 1440L492 1125L412 1225L776 1549Z" />
<glyph unicode="&#xea;" glyph-name="ecircumflex" horiz-adv-x="1102" d="M605 1007Q677 1007 734 990T830 945T895 875T937 791T960 693T970 594T972 495V417H293Q293 363 317 310T386 212T503 139T664 111Q768 111 889 147L918 35Q757 -20 602 -20Q493 -20
409 9T273 84T188 196T143 325T130 462Q130 573 157 665T230 819T337 925T466 987T605 1007ZM570 865Q482 865 419 817T326 696T297 541H813Q813 865 570 865ZM631 1490L887 1204L794 1116L618 1312L437 1117L349 1195L631 1490Z" />
<glyph unicode="&#xeb;" glyph-name="edieresis" horiz-adv-x="1102" d="M605 1007Q677 1007 734 990T830 945T895 875T937 791T960 693T970 594T972 495V417H295Q295 363 319 310T387 212T504 139T664 111Q768 111 889 147L918 35Q757 -20 602 -20Q493 -20 409
9T273 84T188 196T143 325T130 462Q130 573 157 665T230 819T337 925T466 987T605 1007ZM570 865Q482 865 418 817T325 696T295 541H813Q813 865 570 865ZM295 1421H480V1235H295V1421ZM744 1421H929V1235H744V1421Z" />
<glyph unicode="&#xec;" glyph-name="igrave" horiz-adv-x="524" d="M180 988H344V0H180V988ZM92 1549L456 1225L376 1125L0 1440L92 1549Z" />
<glyph unicode="&#xed;" glyph-name="iacute" horiz-adv-x="524" d="M180 988H344V0H180V988ZM476 1549L568 1440L192 1125L112 1225L476 1549Z" />
<glyph unicode="&#xee;" glyph-name="icircumflex" horiz-adv-x="530" d="M180 988H344V0H180V988ZM268 1490L494 1204L401 1116L255 1302L104 1117L17 1195L268 1490Z" />
<glyph unicode="&#xef;" glyph-name="idieresis" horiz-adv-x="524" d="M180 988H344V0H180V988ZM-15 1421H170V1236H-15V1421ZM354 1421H539V1236H354V1421Z" />
<glyph unicode="&#xf0;" glyph-name="eth" horiz-adv-x="1252" d="M289 481Q289 325 381 220T605 114Q637 114 669 121T741 150T811 206T868 299T904 436T914 629V691Q727 807 589 807Q460 807 375 716T289 481ZM513 1458Q679 1413 808 1313L990 1418L1045 1323L893
1236Q994 1128 1033 996T1072 687Q1072 604 1067 534T1049 390T1013 257T953 145T867 57T747 1T590 -20Q386 -20 258 100T130 428Q130 568 184 685T339 872T568 943Q713 943 905 834Q879 1026 748 1153L569 1050L515 1145L657 1227Q566 1291 451 1330L513 1458Z"
/>
<glyph unicode="&#xf1;" glyph-name="ntilde" horiz-adv-x="1177" d="M180 988H295L331 904Q522 1008 679 1008Q760 1008 820 983T913 919T966 822T991 710T997 589V0H832V600Q832 860 608 860Q492 860 344 783V0H180V988ZM887 1449L995 1432L978 1347Q959 1252
924 1208Q876 1144 793 1144Q749 1144 708 1162T636 1207T578 1260T525 1305T475 1324Q462 1324 451 1319T431 1308T416 1290T405 1270T396 1247T391 1226T388 1208L385 1195L375 1144L267 1160L284 1245Q284 1247 285 1250Q323 1446 469 1446Q513 1446 554 1428T625
1383T683 1330T736 1285T786 1266Q798 1266 808 1269T826 1280T840 1294T852 1313T860 1332T867 1352T871 1370T875 1386T877 1397L887 1449Z" />
<glyph unicode="&#xf2;" glyph-name="ograve" horiz-adv-x="1211" d="M529 1549L893 1225L813 1125L437 1440L529 1549ZM597 867Q474 867 382 772T290 511Q290 346 380 233T613 120Q745 120 833 220T921 481Q921 573 893 648T818 770T714 842T597 867ZM611 1007Q816
1007 948 876T1081 514Q1081 269 946 125T595 -20Q390 -20 260 115T130 483Q130 722 262 864T611 1007Z" />
<glyph unicode="&#xf3;" glyph-name="oacute" horiz-adv-x="1211" d="M611 1007Q816 1007 948 876T1081 514Q1081 269 946 125T595 -20Q390 -20 260 115T130 483Q130 722 262 864T611 1007ZM597 867Q474 867 382 772T290 511Q290 346 380 233T613 120Q745 120
833 220T921 481Q921 573 893 648T818 770T714 842T597 867ZM706 1549L798 1440L422 1125L342 1225L706 1549Z" />
<glyph unicode="&#xf4;" glyph-name="ocircumflex" horiz-adv-x="1211" d="M611 1007Q816 1007 948 876T1081 514Q1081 269 946 125T595 -20Q390 -20 260 115T130 483Q130 722 262 864T611 1007ZM597 867Q474 867 382 772T290 511Q290 346 380 233T613 120Q745
120 833 220T921 481Q921 573 893 648T818 770T714 842T597 867ZM624 1490L880 1204L788 1116L612 1312L430 1117L342 1195L624 1490Z" />
<glyph unicode="&#xf5;" glyph-name="otilde" horiz-adv-x="1211" d="M867 1448L975 1431Q973 1423 967 1391T958 1346T948 1304T934 1261T916 1225T892 1191T862 1167T822 1149T773 1144Q729 1144 688 1162T616 1207T558 1260T505 1305T455 1324Q443 1324 433
1321T414 1311T400 1296T388 1276T379 1254T372 1227T366 1200T361 1172T355 1144L247 1159Q249 1167 255 1199T264 1244T274 1286T288 1329T306 1365T330 1399T360 1423T400 1441T449 1446Q493 1446 534 1428T606 1383T664 1330T717 1285T767 1266Q781 1266 792
1271T812 1282T827 1302T839 1326T848 1355T855 1384T861 1417T867 1448ZM597 867Q474 867 382 772T290 511Q290 346 380 233T613 120Q745 120 833 220T921 481Q921 573 893 648T818 770T714 842T597 867ZM611 1007Q816 1007 948 876T1081 514Q1081 269 946 125T595
-20Q390 -20 260 115T130 483Q130 722 262 864T611 1007Z" />
<glyph unicode="&#xf6;" glyph-name="odieresis" horiz-adv-x="1211" d="M611 1007Q816 1007 948 876T1081 514Q1081 269 946 125T595 -20Q390 -20 260 115T130 483Q130 722 262 864T611 1007ZM597 867Q474 867 382 772T290 511Q290 346 380 233T613 120Q745 120
833 220T921 481Q921 573 893 648T818 770T714 842T597 867ZM319 1421H504V1235H319V1421ZM768 1421H953V1235H768V1421Z" />
<glyph unicode="&#xf7;" glyph-name="divide" horiz-adv-x="1400" d="M602 1233H797V1038H602V1233ZM602 278H797V83H602V278ZM125 727H1275V588H125V727Z" />
<glyph unicode="&#xf8;" glyph-name="oslash" horiz-adv-x="1211" d="M1041 995L1099 939L990 827Q1081 701 1081 514Q1081 269 946 125T595 -20Q403 -20 278 97L168 -15L110 41L224 158Q130 288 130 483Q130 722 262 864T611 1007Q808 1007 936 888L1041 995ZM597
867Q474 867 382 772T290 511Q290 383 346 283L819 768Q726 867 597 867ZM868 702L394 217Q483 120 613 120Q745 120 833 220T921 481Q921 609 868 702Z" />
<glyph unicode="&#xf9;" glyph-name="ugrave" horiz-adv-x="1177" d="M833 988H997V0H882L847 83Q658 -20 498 -20Q417 -20 357 5T264 69T211 165T186 277T180 398V988H344V386Q344 127 569 127Q685 127 833 204V988ZM477 1549L841 1225L761 1125L385 1440L477 1549Z" />
<glyph unicode="&#xfa;" glyph-name="uacute" horiz-adv-x="1177" d="M833 988H997V0H882L847 83Q658 -20 498 -20Q417 -20 357 5T264 69T211 165T186 277T180 398V988H344V386Q344 127 569 127Q685 127 833 204V988ZM766 1549L858 1440L482 1125L402 1225L766 1549Z" />
<glyph unicode="&#xfb;" glyph-name="ucircumflex" horiz-adv-x="1177" d="M833 988H997V0H882L847 83Q658 -20 498 -20Q417 -20 357 5T264 69T211 165T186 277T180 398V988H344V386Q344 127 569 127Q685 127 833 204V988ZM611 1490L867 1204L774 1116L598 1312L417
1117L329 1195L611 1490Z" />
<glyph unicode="&#xfc;" glyph-name="udieresis" horiz-adv-x="1177" d="M833 988H997V0H882L847 83Q658 -20 498 -20Q417 -20 357 5T264 69T211 165T186 277T180 398V988H344V386Q344 127 569 127Q685 127 833 204V988ZM276 1421H461V1235H276V1421ZM724 1421H909V1235H724V1421Z"
/>
<glyph unicode="&#xfd;" glyph-name="yacute" horiz-adv-x="1050" d="M50 988H220L536 150L830 988H1000L430 -531H255L458 -38L50 988ZM766 1549L858 1440L482 1125L402 1225L766 1549Z" />
<glyph unicode="&#xfe;" glyph-name="thorn" horiz-adv-x="1221" d="M611 862Q544 862 495 837T417 775T372 682T350 577T345 467Q345 117 615 117Q655 117 696 128T780 166T856 234T910 338T931 481Q931 572 903 646T829 766T726 837T611 862ZM639 1003Q731 1003
813 969T957 874T1055 718T1091 510Q1091 279 960 128T630 -23Q469 -23 354 84V-531H190V1421H354V885Q459 1003 639 1003Z" />
<glyph unicode="&#xff;" glyph-name="ydieresis" horiz-adv-x="1050" d="M50 988H220L536 150L830 988H1000L430 -531H255L458 -38L50 988ZM221 1421H406V1235H221V1421ZM670 1421H855V1235H670V1421Z" />
</font>
</defs>
</svg>
